<svg
			id="monogram"
			class="monogram glow-on-load"
			viewBox="0 0 128 86"
			width="128px"
			height="86px"
			xmlns="http://www.w3.org/2000/svg"
			aria-hidden="true"
			role="img"
		>
			<g transform="scale(0.32)">
				<path 
					id="border" 
					class="path-border"
					d="M3.554 0.244 C 2.380 0.527,1.405 1.249,0.730 2.334 L 0.132 3.296 0.132 131.839 L 0.132 260.382 0.738 261.358 C 1.072 261.894,1.784 262.606,2.320 262.940 L 3.296 263.546 76.618 263.546 L 149.940 263.546 151.035 262.821 C 152.528 261.834,187.194 227.162,188.010 225.840 L 188.662 224.786 188.662 133.421 C 188.662 44.377,188.649 42.031,188.164 41.054 C 187.511 39.740,149.019 1.268,147.701 0.612 C 146.691 0.109,5.607 -0.251,3.554 0.244 M247.198 0.188 C 246.110 0.455,244.388 2.104,226.493 20.016 C 206.859 39.667,205.880 40.704,205.435 42.320 C 205.007 43.874,205.021 222.622,205.449 224.321 C 205.870 225.994,204.584 224.628,224.782 244.868 L 242.980 263.104 244.430 263.395 C 245.471 263.604,267.165 263.666,321.292 263.616 L 396.704 263.546 397.680 262.940 C 398.216 262.606,398.928 261.894,399.262 261.358 L 399.868 260.382 399.938 187.607 C 399.987 135.674,399.925 114.432,399.719 113.435 C 399.353 111.666,398.183 110.420,396.486 109.993 C 394.829 109.576,297.014 109.559,295.071 109.975 C 293.462 110.320,292.106 111.725,291.656 113.514 C 291.158 115.490,291.256 160.910,291.761 162.612 C 292.803 166.119,292.793 166.117,311.944 166.117 L 327.488 166.117 327.488 182.729 L 327.488 199.341 299.011 199.341 L 270.534 199.341 270.534 133.421 L 270.534 67.502 311.871 67.502 C 351.847 67.502,353.268 67.485,355.048 66.994 C 356.060 66.715,359.499 65.826,362.690 65.018 C 365.880 64.209,368.906 63.377,369.413 63.169 C 369.921 62.961,373.421 62.000,377.192 61.033 C 392.167 57.195,391.857 57.306,392.782 55.444 C 393.255 54.493,393.276 53.346,393.276 29.005 C 393.276 0.456,393.414 2.456,391.341 0.870 L 390.376 0.132 319.051 0.096 C 279.822 0.076,247.488 0.117,247.198 0.188 M164.469 24.060 L 183.784 43.374 183.784 133.288 L 183.784 223.202 165.920 241.067 L 148.057 258.932 76.402 258.932 L 4.746 258.932 4.746 131.839 L 4.746 4.746 74.950 4.746 L 145.154 4.746 164.469 24.060 M388.398 28.836 L 388.398 52.927 384.509 53.930 C 382.370 54.482,380.501 55.020,380.356 55.126 C 380.211 55.231,377.482 55.993,374.291 56.818 C 371.101 57.643,365.109 59.228,360.976 60.339 L 353.461 62.360 309.624 62.429 L 265.788 62.498 265.788 133.424 L 265.788 204.351 299.276 204.351 L 332.765 204.351 332.698 182.795 L 332.630 161.239 314.502 161.172 L 296.374 161.104 296.374 137.902 L 296.374 114.700 345.814 114.700 L 395.254 114.700 395.254 186.816 L 395.254 258.932 320.568 258.932 L 245.881 258.932 228.017 241.069 L 210.152 223.205 210.152 133.384 L 210.152 43.562 229.466 24.177 L 248.780 4.793 318.589 4.769 L 388.398 4.746 388.398 28.836 M69.875 133.421 L 69.875 204.351 99.275 204.351 L 128.675 204.351 128.675 133.421 L 128.675 62.492 99.275 62.492 L 69.875 62.492 69.875 133.421 M123.665 133.421 L 123.665 199.341 99.143 199.341 L 74.621 199.341 74.621 133.421 L 74.621 67.502 99.143 67.502 L 123.665 67.502 123.665 133.421 " 
					fill="#bab9c3" 
					fill-rule="evenodd">
				</path>
				<path 
					id="body" 
					class="path-body"
					d="M4.746 131.839 L 4.746 258.932 76.402 258.932 L 148.057 258.932 165.920 241.067 L 183.784 223.202 183.784 133.288 L 183.784 43.374 164.469 24.060 L 145.154 4.746 74.950 4.746 L 4.746 4.746 4.746 131.839 M229.466 24.177 L 210.152 43.562 210.152 133.384 L 210.152 223.205 228.017 241.069 L 245.881 258.932 320.568 258.932 L 395.254 258.932 395.254 186.816 L 395.254 114.700 345.814 114.700 L 296.374 114.700 296.374 137.902 L 296.374 161.104 314.502 161.172 L 332.630 161.239 332.698 182.795 L 332.765 204.351 299.276 204.351 L 265.788 204.351 265.788 133.424 L 265.788 62.498 309.624 62.429 L 353.461 62.360 360.976 60.339 C 365.109 59.228,371.100 57.642,374.290 56.815 C 379.161 55.553,382.015 54.581,380.854 54.581 C 380.701 54.581,380.487 54.670,380.378 54.779 C 380.269 54.888,380.101 54.987,380.004 55.000 C 379.908 55.012,379.651 55.098,379.433 55.190 C 379.216 55.281,376.190 56.081,372.709 56.967 C 369.229 57.852,363.474 59.369,359.921 60.336 L 353.461 62.096 309.888 62.165 L 266.315 62.234 266.315 57.609 C 266.315 54.149,266.398 52.952,266.645 52.860 C 267.139 52.676,388.147 52.578,387.786 52.762 C 387.615 52.850,386.170 53.254,384.575 53.662 C 382.980 54.069,381.565 54.498,381.432 54.616 C 381.298 54.734,382.722 54.419,384.596 53.918 C 386.470 53.417,388.092 53.005,388.200 53.003 C 388.309 53.001,388.398 42.142,388.398 28.873 L 388.398 4.746 318.589 4.769 L 248.780 4.793 229.466 24.177 M127.824 57.389 C 127.882 60.990,127.975 61.976,128.286 62.233 C 128.627 62.517,128.675 71.250,128.675 133.454 L 128.675 204.351 99.275 204.351 L 69.875 204.351 69.875 133.421 L 69.875 62.492 99.077 62.427 L 128.279 62.362 99.171 62.294 C 81.746 62.253,69.946 62.323,69.771 62.468 C 69.559 62.645,69.497 82.007,69.546 133.662 L 69.613 204.614 98.826 204.614 L 128.040 204.614 127.945 207.976 C 127.893 209.825,127.802 211.487,127.743 211.669 C 127.658 211.932,120.529 211.986,92.757 211.932 L 57.877 211.866 57.810 132.630 C 57.773 89.051,57.799 53.246,57.868 53.064 C 57.968 52.801,65.108 52.747,92.873 52.801 L 127.752 52.868 127.824 57.389 M394.822 115.358 C 394.739 115.574,394.565 115.686,394.435 115.606 C 394.063 115.376,394.160 114.964,394.586 114.964 C 394.822 114.964,394.914 115.118,394.822 115.358 M343.542 161.729 C 343.759 161.991,343.821 168.806,343.772 186.977 L 343.705 211.866 305.076 211.866 L 266.447 211.866 266.374 208.240 L 266.300 204.614 299.663 204.614 L 333.026 204.614 333.026 182.993 L 333.026 161.371 338.135 161.371 C 342.119 161.371,343.310 161.450,343.542 161.729 "
					fill="#141414"
					fill-rule="evenodd">
				</path>
				<path 
					id="shadow" 
					class="path-shadow"
					d="M326.566 52.735 L 266.447 52.868 266.375 57.551 L 266.303 62.234 309.882 62.165 L 353.461 62.096 359.921 60.336 C 363.474 59.369,369.229 57.852,372.709 56.967 C 376.190 56.081,379.216 55.281,379.433 55.190 C 379.651 55.098,379.918 54.997,380.026 54.967 C 380.135 54.936,380.313 54.878,380.422 54.838 C 380.531 54.798,380.738 54.742,380.883 54.714 C 381.028 54.685,381.325 54.591,381.543 54.504 C 381.760 54.417,383.286 53.990,384.935 53.555 C 388.014 52.741,388.802 52.423,387.453 52.537 C 387.030 52.573,359.631 52.662,326.566 52.735 M57.868 53.064 C 57.799 53.246,57.773 89.051,57.810 132.630 L 57.877 211.866 92.757 211.932 C 120.529 211.986,127.658 211.932,127.743 211.669 C 127.802 211.487,127.893 209.825,127.945 207.976 L 128.040 204.614 98.826 204.614 L 69.613 204.614 69.546 133.662 C 69.497 81.809,69.558 62.645,69.773 62.467 C 69.949 62.320,81.667 62.251,99.216 62.292 C 119.938 62.340,128.299 62.278,128.132 62.077 C 128.003 61.922,127.865 59.786,127.825 57.331 L 127.752 52.868 92.873 52.801 C 65.108 52.747,57.968 52.801,57.868 53.064 M394.199 115.212 C 394.199 115.654,394.667 115.763,394.822 115.358 C 394.914 115.118,394.822 114.964,394.586 114.964 C 394.373 114.964,394.199 115.075,394.199 115.212 M333.026 182.993 L 333.026 204.614 299.663 204.614 L 266.300 204.614 266.374 208.240 L 266.447 211.866 305.076 211.866 L 343.705 211.866 343.772 186.977 C 343.821 168.806,343.759 161.991,343.542 161.729 C 343.310 161.450,342.119 161.371,338.135 161.371 L 333.026 161.371 333.026 182.993 " 
					fill="#0E0E0E"
					fill-rule="evenodd">
				</path>
			</g>
		</svg>